<svg xmlns="http://www.w3.org/2000/svg" xmlns:xlink="http://www.w3.org/1999/xlink" id="Layer_1" x="0" y="0" enable-background="new 34.9 272.4 478.8 253.8" version="1.1" viewBox="34.9 272.4 478.8 253.8" xml:space="preserve"><symbol id="Simple_Arrow_2_" viewBox="-29.5 -12 59 24"><g><polygon fill="none" stroke="#FFF" stroke-linecap="round" stroke-linejoin="round" stroke-miterlimit="10" stroke-width="3" points="19.3 7.7 17.9 6.2 24 .5 -28 .5 -28 -1.5 24 -1.5 17.9 -7.2 19.3 -8.7 28 -.5"/><polygon fill="#221F1F" points="19.3 7.7 17.9 6.2 24 .5 -28 .5 -28 -1.5 24 -1.5 17.9 -7.2 19.3 -8.7 28 -.5"/></g><path fill="#221F1F" d="M-27-0.5c0-0.6-0.4-1-1-1s-1,0.4-1,1s0.4,1,1,1S-27,0.1-27-0.5z"/><path fill="#221F1F" d="M19.3,7.7c0.4-0.4,0.4-1,0-1.4s-1-0.4-1.4,0s-0.4,1,0,1.4C18.2,8.1,18.9,8.1,19.3,7.7z"/><path fill="#221F1F" d="M19.3-7.2c0.4-0.4,0.4-1,0-1.4s-1-0.4-1.4,0s-0.4,1,0,1.4S18.9-6.8,19.3-7.2z"/><line x1="-18.5" x2="-18.5" y1="12" y2="-12" fill="none" stroke="#ED358C" stroke-miterlimit="10" display="none"/><line x1="10.2" x2="10.2" y1="12" y2="-12" fill="none" stroke="#ED358C" stroke-miterlimit="10" display="none"/></symbol><g id="Simple_Arrow_1_"><line x1="293.7" x2="293.7" y1="494.8" y2="510.6" fill="none" stroke="#ED358C" stroke-miterlimit="10" display="none"/><line x1="312.6" x2="312.6" y1="494.8" y2="510.6" fill="none" stroke="#ED358C" stroke-miterlimit="10" display="none"/></g><g id="Simple_Arrow" opacity=".2"><path fill="none" stroke="#ED358C" stroke-miterlimit="10" d="M259.3,540c0,0,0.6,1,1.5,2.5c1.7,2.6,4.3,6.7,5.8,9 c0.7,1.1,1.2,1.9,1.2,1.9" display="none"/><path fill="none" stroke="#ED358C" stroke-miterlimit="10" d="M444.6,422.6c0,0,0.6,1,1.5,2.5 c1.7,2.6,4.3,6.7,5.8,9c0.7,1.1,1.2,1.9,1.2,1.9" display="none"/></g><g display="none"><text fill="#221F1F" display="inline" font-family="'ApexNew-Book'" font-size="8.536" transform="matrix(1 0 0 1 72.0566 500.1641)">placeholder</text><circle cx="66.8" cy="497.4" r="2.5" fill="#B93226" stroke="#FFF" stroke-miterlimit="10" stroke-width="2" display="inline"/></g><g display="none"><text fill="#221F1F" display="inline" font-family="'ApexNew-Book'" font-size="8.536" transform="matrix(1 0 0 1 72.0566 500.1641)">placeholder</text><circle cx="66.8" cy="497.4" r="2.5" fill="#B93226" stroke="#FFF" stroke-miterlimit="10" stroke-width="2" display="inline"/></g><path fill="none" stroke="#FFF" stroke-miterlimit="10" stroke-width="5" d="M301.2,436c-18.1,0-32.7-14.7-32.7-32.7"/><path fill="none" stroke="#FFF" stroke-miterlimit="10" stroke-width="5" d="M251.9,290.6c9,0,16.5,7.4,16.5,16.5"/><path fill="none" stroke="#231F20" stroke-miterlimit="10" stroke-width="2" d="M251.9,290.6c9,0,16.5,7.4,16.5,16.5l0.1,96.2	c0,18,14.6,32.7,32.7,32.7"/><use id="XMLID_2_" width="59" height="24" x="-29.5" y="-12" overflow="visible" transform="matrix(0.9227 0 0 -0.6571 145.7311 290.2926)" xlink:href="#Simple_Arrow_2_"/><use id="XMLID_8_" width="59" height="24" x="-29.5" y="-12" overflow="visible" transform="matrix(0.9127 0 0 -0.6571 271.6133 290.2926)" xlink:href="#Simple_Arrow_2_"/><use id="XMLID_9_" width="59" height="24" x="-29.5" y="-12" overflow="visible" transform="matrix(0.9006 0 0 -0.6571 395.3942 290.2926)" xlink:href="#Simple_Arrow_2_"/><g><rect width="90.5" height=".9" x="35" y="304" fill="#E6E6E6"/></g><g><rect width="90.5" height=".9" x="35" y="329.3" fill="#E6E6E6"/></g><path fill="#414141" d="M118.4,273.3c4,0,7.3,4.5,7.3,9.9V413c0,5.5-3.2,9.9-7.3,9.9H42.7c-4,0-7.3-4.5-7.3-9.9V283.2	c0-5.5,3.2-9.9,7.3-9.9H118.4 M118.4,272.4H42.7c-4.3,0-7.8,4.9-7.8,10.9v129.8c0,6,3.5,10.9,7.8,10.9h75.8c4.3,0,7.8-4.9,7.8-10.9	V283.2C126.3,277.2,122.7,272.4,118.4,272.4L118.4,272.4z"/><text fill="#221F1F" font-family="'HelveticaNeue-Light'" font-size="18.231" transform="matrix(1 0 0 1 59.2856 297.5254)">477B</text><text fill="#221F1F" font-family="'ApexNew-Bold'" font-size="8.536" transform="matrix(1 0 0 1 41.4873 343.0078)">tree</text><text fill="#221F1F" font-family="'ApexNew-Book'" font-size="8.536" transform="matrix(1 0 0 1 56.6646 343.0078)">: C671</text><text fill="#221F1F" font-family="'ApexNew-Bold'" font-size="8.536" transform="matrix(1 0 0 1 41.4873 353.251)">parent</text><text fill="#221F1F" font-family="'ApexNew-Book'" font-size="8.536" transform="matrix(1 0 0 1 65.9507 353.251)">: nil</text><text fill="#221F1F" font-family="'ApexNew-Bold'" font-size="8.536" transform="matrix(1 0 0 1 41.4873 363.4932)">author</text><text fill="#221F1F" font-family="'ApexNew-Book'" font-size="8.536" transform="matrix(1 0 0 1 66.0527 363.4932)">: Tim</text><text fill="#221F1F" font-family="'ApexNew-Bold'" font-size="8.536" transform="matrix(1 0 0 1 41.4873 373.7363)">committer</text><text fill="#221F1F" font-family="'ApexNew-Book'" font-size="8.536" transform="matrix(1 0 0 1 79.6416 373.7363)">: Brent</text><text fill="#221F1F" font-family="'ApexNew-Bold'" font-size="8.536" transform="matrix(1 0 0 1 41.4873 383.9795)">message</text><text fill="#221F1F" font-family="'ApexNew-Book'" font-size="8.536" transform="matrix(1 0 0 1 73.9141 383.9795)">:</text><text fill="#221F1F" font-family="'ApexNew-Book'" font-size="8.536" transform="matrix(1 0 0 1 41.4873 400.5225)">Add initial project</text><text fill="#221F1F" font-family="'ApexNew-Book'" font-size="8.536" transform="matrix(1 0 0 1 41.4873 410.7646)">HTML and JavaScript</text><text fill="#221F1F" font-family="'ApexNew-Bold'" font-size="12.602" transform="matrix(1 0 0 1 60.2114 320.9141)">commit</text><line x1="250.6" x2="160" y1="307.7" y2="307.7" fill="none" stroke="#E6E6E6" stroke-miterlimit="10"/><line x1="250.6" x2="160" y1="326.2" y2="326.2" fill="none" stroke="#E6E6E6" stroke-miterlimit="10"/><path fill="#414141" d="M243.4,273c4,0,7.3,3.2,7.3,7.3v94.5c0,4-3.2,7.3-7.3,7.3h-75.8c-4,0-7.3-3.2-7.3-7.3v-94.5	c0-4,3.2-7.3,7.3-7.3H243.4 M243.4,272.4h-75.8c-4.3,0-7.8,3.5-7.8,7.8v94.5c0,4.3,3.5,7.8,7.8,7.8h75.8c4.3,0,7.8-3.5,7.8-7.8	v-94.5C251.3,276,247.7,272.4,243.4,272.4L243.4,272.4z"/><text fill="#221F1F" font-family="'HelveticaNeue-Light'" font-size="18.231" transform="matrix(1 0 0 1 183.9057 297.5254)">C671</text><text fill="#221F1F" font-family="'ApexNew-Bold'" font-size="8.536" transform="matrix(1 0 0 1 166.4453 339.0664)">tree</text><text fill="#221F1F" font-family="'ApexNew-Book'" font-size="8.536" transform="matrix(1 0 0 1 181.6216 339.0664)">: 8D33 javascript</text><text fill="#221F1F" font-family="'ApexNew-Bold'" font-size="8.536" transform="matrix(1 0 0 1 166.4453 349.3086)">blob</text><text fill="#221F1F" font-family="'ApexNew-Book'" font-size="8.536" transform="matrix(1 0 0 1 182.6025 349.3086)">: 9E3A index.html</text><text fill="#221F1F" font-family="'ApexNew-Bold'" font-size="12.602" transform="matrix(1 0 0 1 194.3242 320.9141)">tree</text><line x1="375.5" x2="285" y1="307.7" y2="307.7" fill="none" stroke="#E6E6E6" stroke-miterlimit="10"/><line x1="375.5" x2="285" y1="326.2" y2="326.2" fill="none" stroke="#E6E6E6" stroke-miterlimit="10"/><path fill="#414141" d="M368.3,273c4,0,7.3,3.2,7.3,7.3v94.5c0,4-3.2,7.3-7.3,7.3h-75.8c-4,0-7.3-3.2-7.3-7.3v-94.5	c0-4,3.2-7.3,7.3-7.3H368.3 M368.3,272.4h-75.8c-4.3,0-7.8,3.5-7.8,7.8v94.5c0,4.3,3.5,7.8,7.8,7.8h75.8c4.3,0,7.8-3.5,7.8-7.8	v-94.5C376.3,276,372.6,272.4,368.3,272.4L368.3,272.4z"/><text fill="#221F1F" font-family="'HelveticaNeue-Light'" font-size="18.231" transform="matrix(1 0 0 1 309.0361 297.5254)">8D33</text><text fill="#221F1F" font-family="'ApexNew-Bold'" font-size="8.536" transform="matrix(1 0 0 1 291.4023 339.0664)">blob</text><text fill="#221F1F" font-family="'ApexNew-Book'" font-size="8.536" transform="matrix(1 0 0 1 307.5605 339.0664)">: 7FB1 app.js</text><text fill="#221F1F" font-family="'ApexNew-Bold'" font-size="8.536" transform="matrix(1 0 0 1 291.4023 349.3086)">blob</text><text fill="#221F1F" font-family="'ApexNew-Book'" font-size="8.536" transform="matrix(1 0 0 1 307.5605 349.3086)">: 512D logo.png</text><text fill="#221F1F" font-family="'ApexNew-Bold'" font-size="12.602" transform="matrix(1 0 0 1 319.2812 320.9141)">tree</text><path fill="none" stroke="#221F1F" stroke-miterlimit="10" d="M371.7,487.7"/><path fill="none" stroke="#221F1F" stroke-miterlimit="10" d="M371.7,487.7"/><line x1="389.2" x2="298.7" y1="451.4" y2="451.4" fill="none" stroke="#E6E6E6" stroke-miterlimit="10"/><line x1="389.2" x2="298.7" y1="469.8" y2="469.8" fill="none" stroke="#E6E6E6" stroke-miterlimit="10"/><path fill="#414141" d="M382.1,416.6c4,0,7.3,3.2,7.3,7.3v94.5c0,4-3.2,7.3-7.3,7.3h-75.7c-4,0-7.3-3.2-7.3-7.3v-94.5	c0-4,3.2-7.3,7.3-7.3H382.1 M382.1,416.1h-75.7c-4.3,0-7.8,3.5-7.8,7.8v94.5c0,4.3,3.5,7.8,7.8,7.8h75.8c4.3,0,7.8-3.5,7.8-7.8	v-94.5C390,419.6,386.4,416.1,382.1,416.1L382.1,416.1z"/><text fill="#221F1F" font-family="'HelveticaNeue-Light'" font-size="18.231" transform="matrix(1 0 0 1 322.9238 441.165)">9E3A</text><text fill="#221F1F" font-family="'AndaleMono'" font-size="8.536" transform="matrix(1 0 0 1 305.126 482.7061)">&lt;html&gt;</text><text fill="#221F1F" font-family="'AndaleMono'" font-size="8.536" transform="matrix(1 0 0 1 330.7334 492.9482)">&lt;head&gt;...</text><text fill="#221F1F" font-family="'AndaleMono'" font-size="8.536" transform="matrix(1 0 0 1 330.7334 503.1914)">&lt;body&gt;...</text><text fill="#221F1F" font-family="'AndaleMono'" font-size="8.536" transform="matrix(1 0 0 1 305.126 513.4346)">&lt;/html&gt;</text><text fill="#221F1F" font-family="'ApexNew-Bold'" font-size="12.602" transform="matrix(1 0 0 1 332.2802 464.5547)">blob</text><path fill="none" stroke="#221F1F" stroke-miterlimit="10" d="M398.6,474.8"/><path fill="none" stroke="#221F1F" stroke-miterlimit="10" d="M398.6,474.8"/><line x1="513.1" x2="422.5" y1="451.4" y2="451.4" fill="none" stroke="#E6E6E6" stroke-miterlimit="10"/><line x1="513.1" x2="422.5" y1="469.8" y2="469.8" fill="none" stroke="#E6E6E6" stroke-miterlimit="10"/><path fill="#414141" d="M505.9,416.6c4,0,7.3,3.2,7.3,7.3v94.5c0,4-3.2,7.3-7.3,7.3h-75.8c-4,0-7.3-3.2-7.3-7.3v-94.5	c0-4,3.2-7.3,7.3-7.3H505.9 M505.9,416.1h-75.8c-4.3,0-7.8,3.5-7.8,7.8v94.5c0,4.3,3.5,7.8,7.8,7.8h75.8c4.3,0,7.8-3.5,7.8-7.8	v-94.5C513.8,419.6,510.3,416.1,505.9,416.1L505.9,416.1z"/><text fill="#221F1F" font-family="'HelveticaNeue-Light'" font-size="18.231" transform="matrix(1 0 0 1 446.5908 441.165)">512D</text><text fill="#221F1F" font-family="'AndaleMono'" font-size="8.536" transform="matrix(1 0 0 1 428.956 482.7061)">4342 2a00</text><text fill="#221F1F" font-family="'AndaleMono'" font-size="8.536" transform="matrix(1 0 0 1 428.956 492.9482)">0800 0000</text><text fill="#221F1F" font-family="'AndaleMono'" font-size="8.536" transform="matrix(1 0 0 1 428.956 503.1914)">3c00 ab00</text><text fill="#221F1F" font-family="'AndaleMono'" font-size="8.536" transform="matrix(1 0 0 1 428.956 513.4346)">4342 2a03</text><text fill="#221F1F" font-family="'ApexNew-Bold'" font-size="12.602" transform="matrix(1 0 0 1 456.1104 464.5547)">blob</text><path fill="none" stroke="#221F1F" stroke-miterlimit="10" d="M489.9,339.4"/><path fill="none" stroke="#221F1F" stroke-miterlimit="10" d="M489.9,339.4"/><line x1="500.5" x2="409.9" y1="307.7" y2="307.7" fill="none" stroke="#E6E6E6" stroke-miterlimit="10"/><line x1="500.5" x2="409.9" y1="326.2" y2="326.2" fill="none" stroke="#E6E6E6" stroke-miterlimit="10"/><path fill="#414141" d="M493.3,273c4,0,7.3,3.2,7.3,7.3v94.5c0,4-3.2,7.3-7.3,7.3h-75.8c-4,0-7.3-3.2-7.3-7.3v-94.5	c0-4,3.2-7.3,7.3-7.3H493.3 M493.3,272.4h-75.8c-4.3,0-7.8,3.5-7.8,7.8v94.5c0,4.3,3.5,7.8,7.8,7.8h75.8c4.3,0,7.8-3.5,7.8-7.8	v-94.5C501.2,276,497.6,272.4,493.3,272.4L493.3,272.4z"/><text fill="#221F1F" font-family="'HelveticaNeue-Light'" font-size="18.231" transform="matrix(1 0 0 1 434.331 297.5254)">7FB1</text><text fill="#221F1F" font-family="'AndaleMono'" font-size="8.536" transform="matrix(1 0 0 1 416.3604 339.0664)">// JavaScript</text><text fill="#221F1F" font-family="'AndaleMono'" font-size="8.536" transform="matrix(1 0 0 1 416.3604 349.3086)">var itemCount;</text><text fill="#221F1F" font-family="'AndaleMono'" font-size="8.536" transform="matrix(1 0 0 1 416.3604 359.5518)">function(){...</text><text fill="#221F1F" font-family="'AndaleMono'" font-size="8.536" transform="matrix(1 0 0 1 416.3604 369.7939)">itemCount +=...</text><text fill="#221F1F" font-family="'ApexNew-Bold'" font-size="12.602" transform="matrix(1 0 0 1 443.5146 320.9141)">blob</text><path fill="#231F20" d="M436.4,435.8l-5.8-5.4c-0.3-0.3-0.7-0.3-0.9,0c-0.3,0.3-0.3,0.7,0,0.9c0,0,0,0,0.1,0l0,0l4,3.7v1.3l-4.1,3.7	c-0.3,0.3-0.3,0.7,0,0.9c0.3,0.3,0.7,0.3,0.9,0l0,0L436.4,435.8z"/><path fill="none" stroke="#FFF" stroke-miterlimit="10" stroke-width="5" d="M426.7,435.7c-18.1,0-32.7-14.7-32.7-32.7"/><path fill="none" stroke="#FFF" stroke-miterlimit="10" stroke-width="5" d="M377.5,290.3c9,0,16.5,7.4,16.5,16.5"/><path fill="none" stroke="#231F20" stroke-miterlimit="10" stroke-width="2" d="M368.8,290.3l8.7,0c9,0,16.5,7.4,16.5,16.5l0,96.2	c0,18,14.6,32.7,32.7,32.7l-0.9,0"/><path fill="none" stroke="#231F20" stroke-miterlimit="10" stroke-width="2" d="M434.9,435.6"/><line x1="434.2" x2="426.7" y1="435.7" y2="435.7" fill="none" stroke="#231F20" stroke-miterlimit="10" stroke-width="2"/><path fill="#231F20" d="M310.9,436.1l-5.8-5.4c-0.3-0.3-0.7-0.3-0.9,0c-0.3,0.3-0.3,0.7,0,0.9c0,0,0,0,0.1,0l0,0l4,3.7v1.3l-4.1,3.7	c-0.3,0.3-0.3,0.7,0,0.9c0.3,0.3,0.7,0.3,0.9,0l0,0L310.9,436.1z"/><line x1="308.7" x2="301.2" y1="436" y2="436" fill="none" stroke="#231F20" stroke-miterlimit="10" stroke-width="2"/></svg>