<svg xmlns="http://www.w3.org/2000/svg" xmlns:xlink="http://www.w3.org/1999/xlink" id="Layer_2" x="0" y="0" enable-background="new 0 331 500 144" version="1.1" viewBox="0 331 500 144" xml:space="preserve"><g id="base"><g id="XMLID_5_"><g id="Template_9_"><line x1="92.3" x2="11.9" y1="416.4" y2="416.4" fill="none" stroke="#E6E6E6" stroke-miterlimit="10"/></g><g id="border_18_"><path fill="#414141" d="M84,381.1c4.1,0,7.4,3.3,7.4,7.4v64.3c0,4.1-3.3,7.4-7.4,7.4H19.7c-4.1,0-7.4-3.3-7.4-7.4v-64.3 c0-4.1,3.3-7.4,7.4-7.4L84,381.1 M84,380.4H19.7c-4.4,0-8,3.6-8,8v64.3c0,4.4,3.6,8,8,8H84c4.4,0,8-3.6,8-8v-64.3 C92.1,384,88.5,380.4,84,380.4L84,380.4z"/></g></g><g><text fill="#221F1F" font-family="'HelveticaNeue-Light'" font-size="18.595" transform="matrix(1 0 0 1 35.7959 406.0284)">F3B</text><g><text fill="#221F1F" font-family="'ApexNew-Book'" font-size="8.706" transform="matrix(1 0 0 1 25.601 431.6456)">README.md</text><circle cx="20.2" cy="428.8" r="2.5" fill="#73BD46" stroke="#FFF" stroke-miterlimit="10" stroke-width="2"/></g><g display="none"><text fill="#221F1F" display="inline" font-family="'ApexNew-Book'" font-size="8.706" transform="matrix(1 0 0 1 25.601 444.5458)">placeholder</text><circle cx="20.2" cy="441.7" r="2.5" fill="#B93226" stroke="#FFF" stroke-miterlimit="10" stroke-width="2" display="inline"/></g></g></g><g id="step-1-in-out_1_" display="none"><g id="XMLID_3_" display="inline"><g><polygon fill="none" stroke="#FFF" stroke-linecap="round" stroke-linejoin="round" stroke-miterlimit="10" stroke-width="3" points="414 394.2 413.1 395.1 417.2 399 382.3 399 382.3 400.3 417.2 400.3 413.1 404.2 414 405.1 419.9 399.7"/><polygon fill="#221F1F" points="414 394.2 413.1 395.1 417.2 399 382.3 399 382.3 400.3 417.2 400.3 413.1 404.2 414 405.1 419.9 399.7"/></g><circle cx="382.3" cy="399.6" r=".7" fill="#221F1F"/><circle cx="413.6" cy="394.7" r=".7" fill="#221F1F"/><circle cx="413.6" cy="404.7" r=".7" fill="#221F1F"/><line x1="388.7" x2="388.7" y1="391.3" y2="407.4" fill="none" stroke="#ED358C" stroke-miterlimit="10" display="none"/><line x1="407.9" x2="407.9" y1="391.3" y2="407.4" fill="none" stroke="#ED358C" stroke-miterlimit="10" display="none"/></g><path fill="none" stroke="#221F1F" stroke-miterlimit="10" d="M288.6,467.3" display="inline"/><g display="inline"><g><g id="Template_8_"><line x1="191.5" x2="111" y1="416.7" y2="416.7" fill="none" stroke="#E6E6E6" stroke-miterlimit="10"/></g><g id="border_16_"><path fill="#414141" d="M183.2,381.3c4.1,0,7.4,3.3,7.4,7.4V453c0,4.1-3.3,7.4-7.4,7.4h-64.3c-4.1,0-7.4-3.3-7.4-7.4v-64.3 c0-4.1,3.3-7.4,7.4-7.4H183.2 M183.2,380.7h-64.3c-4.4,0-8,3.6-8,8V453c0,4.4,3.6,8,8,8h64.3c4.4,0,8-3.6,8-8v-64.3 C191.2,384.3,187.6,380.7,183.2,380.7L183.2,380.7z"/></g></g><g><text fill="#221F1F" font-family="'HelveticaNeue-Light'" font-size="18.595" transform="matrix(1 0 0 1 135.3966 406.3203)">48E</text><g><text fill="#221F1F" font-family="'ApexNew-Book'" font-size="8.706" transform="matrix(1 0 0 1 124.6904 431.9376)">README.md</text><circle cx="119.3" cy="429.1" r="2.5" fill="#BD2C00" stroke="#FFF" stroke-miterlimit="10" stroke-width="2"/></g><g display="none"><text fill="#221F1F" display="inline" font-family="'ApexNew-Book'" font-size="8.706" transform="matrix(1 0 0 1 124.6904 444.838)">index.html</text><circle cx="119.3" cy="442" r="2.5" fill="#73BD46" stroke="#FFF" stroke-miterlimit="10" stroke-width="2" display="inline"/></g></g></g><g display="inline"><g><g id="Template_6_"><line x1="290.2" x2="209.8" y1="416.5" y2="416.5" fill="none" stroke="#E6E6E6" stroke-miterlimit="10"/></g><g id="border_14_"><path fill="#414141" d="M281.9,381.1c4.1,0,7.4,3.3,7.4,7.4v64.3c0,4.1-3.3,7.4-7.4,7.4h-64.3c-4.1,0-7.4-3.3-7.4-7.4v-64.3 c0-4.1,3.3-7.4,7.4-7.4L281.9,381.1 M281.9,380.5h-64.3c-4.4,0-8,3.6-8,8v64.3c0,4.4,3.6,8,8,8h64.3c4.4,0,8-3.6,8-8v-64.3 C289.9,384.1,286.3,380.5,281.9,380.5L281.9,380.5z"/></g></g><g><text fill="#221F1F" font-family="'HelveticaNeue-Light'" font-size="18.595" transform="matrix(1 0 0 1 233.2606 406.1143)">62D</text><text fill="#221F1F" font-family="'ApexNew-Book'" font-size="8.706" transform="matrix(1 0 0 1 223.4097 431.7314)">script/setup</text><circle cx="218" cy="428.9" r="2.5" fill="#73BD46" stroke="#FFF" stroke-miterlimit="10" stroke-width="2"/><g display="none"><text fill="#221F1F" display="inline" font-family="'ApexNew-Book'" font-size="8.706" transform="matrix(1 0 0 1 223.4097 444.6318)">team.jpg</text><circle cx="218" cy="441.8" r="2.5" fill="#73BD46" stroke="#FFF" stroke-miterlimit="10" stroke-width="2" display="inline"/></g></g></g><g display="inline"><g><g id="Template_5_"><line x1="389.4" x2="309" y1="416.4" y2="416.4" fill="none" stroke="#E6E6E6" stroke-miterlimit="10"/></g><g id="border_12_"><path fill="#414141" d="M381.1,381.1c4.1,0,7.4,3.3,7.4,7.4v64.3c0,4.1-3.3,7.4-7.4,7.4h-64.3c-4.1,0-7.4-3.3-7.4-7.4v-64.3 c0-4.1,3.3-7.4,7.4-7.4L381.1,381.1 M381.1,380.4h-64.3c-4.4,0-8,3.6-8,8v64.3c0,4.4,3.6,8,8,8h64.3c4.4,0,8-3.6,8-8v-64.3 C389.2,384,385.5,380.4,381.1,380.4L381.1,380.4z"/></g></g><g><text fill="#221F1F" font-family="'HelveticaNeue-Light'" font-size="18.595" transform="matrix(1 0 0 1 333.0373 406.0283)">A11</text><text fill="#221F1F" font-family="'ApexNew-Book'" font-size="8.706" transform="matrix(1 0 0 1 322.6747 431.6456)">script/update</text><circle cx="317.3" cy="428.8" r="2.5" fill="#73BD46" stroke="#FFF" stroke-miterlimit="10" stroke-width="2"/><g display="none"><text fill="#221F1F" display="inline" font-family="'ApexNew-Book'" font-size="8.706" transform="matrix(1 0 0 1 322.6747 444.5458)">script/update</text><circle cx="317.3" cy="441.7" r="2.5" fill="#73BD46" stroke="#FFF" stroke-miterlimit="10" stroke-width="2" display="inline"/></g></g></g><g display="inline"><g><polygon fill="none" stroke="#FFF" stroke-linecap="round" stroke-linejoin="round" stroke-miterlimit="10" stroke-width="3" points="315.1 394.5 314.2 395.5 318.3 399.3 283.4 399.3 283.4 400.6 318.3 400.6 314.2 404.5 315.1 405.5 321 400"/><polygon fill="#221F1F" points="315.1 394.5 314.2 395.5 318.3 399.3 283.4 399.3 283.4 400.6 318.3 400.6 314.2 404.5 315.1 405.5 321 400"/></g><circle cx="283.4" cy="400" r=".7" fill="#221F1F"/><circle cx="314.6" cy="394.9" r=".7" fill="#221F1F"/><circle cx="314.6" cy="404.9" r=".7" fill="#221F1F"/><line x1="289.8" x2="289.8" y1="391.6" y2="407.7" fill="none" stroke="#ED358C" stroke-miterlimit="10" display="none"/><line x1="309.1" x2="309.1" y1="391.6" y2="407.7" fill="none" stroke="#ED358C" stroke-miterlimit="10" display="none"/></g><g id="XMLID_2_" display="inline"><g><polygon fill="none" stroke="#FFF" stroke-linecap="round" stroke-linejoin="round" stroke-miterlimit="10" stroke-width="3" points="216.2 394.2 215.3 395.1 219.4 399 184.5 399 184.5 400.3 219.4 400.3 215.3 404.2 216.2 405.1 222.1 399.7"/><polygon fill="#221F1F" points="216.2 394.2 215.3 395.1 219.4 399 184.5 399 184.5 400.3 219.4 400.3 215.3 404.2 216.2 405.1 222.1 399.7"/></g><circle cx="184.5" cy="399.6" r=".7" fill="#221F1F"/><circle cx="215.7" cy="394.7" r=".7" fill="#221F1F"/><circle cx="215.8" cy="404.7" r=".7" fill="#221F1F"/><line x1="190.9" x2="190.9" y1="391.3" y2="407.4" fill="none" stroke="#ED358C" stroke-miterlimit="10" display="none"/><line x1="210.2" x2="210.2" y1="391.3" y2="407.4" fill="none" stroke="#ED358C" stroke-miterlimit="10" display="none"/></g><g id="XMLID_1_" display="inline"><g><polygon fill="none" stroke="#FFF" stroke-linecap="round" stroke-linejoin="round" stroke-miterlimit="10" stroke-width="3" points="117.1 394.2 116.2 395.1 120.3 399 85.4 399 85.4 400.3 120.4 400.3 116.2 404.2 117.1 405.1 123 399.7"/><polygon fill="#221F1F" points="117.1 394.2 116.2 395.1 120.3 399 85.4 399 85.4 400.3 120.4 400.3 116.2 404.2 117.1 405.1 123 399.7"/></g><circle cx="85.4" cy="399.6" r=".7" fill="#221F1F"/><circle cx="116.7" cy="394.7" r=".7" fill="#221F1F"/><circle cx="116.7" cy="404.7" r=".7" fill="#221F1F"/><line x1="91.8" x2="91.8" y1="391.3" y2="407.4" fill="none" stroke="#ED358C" stroke-miterlimit="10" display="none"/><line x1="111" x2="111" y1="391.3" y2="407.4" fill="none" stroke="#ED358C" stroke-miterlimit="10" display="none"/></g><g display="inline"><g><g id="Template_4_"><line x1="488.3" x2="407.9" y1="416.7" y2="416.7" fill="none" stroke="#E6E6E6" stroke-miterlimit="10"/></g><g id="border_8_"><path fill="#414141" d="M480,381.3c4.1,0,7.4,3.3,7.4,7.4V453c0,4.1-3.3,7.4-7.4,7.4h-64.3c-4.1,0-7.4-3.3-7.4-7.4v-64.3 c0-4.1,3.3-7.4,7.4-7.4H480 M480,380.7h-64.3c-4.4,0-8,3.6-8,8V453c0,4.4,3.6,8,8,8H480c4.4,0,8-3.6,8-8v-64.3 C488.1,384.3,484.5,380.7,480,380.7L480,380.7z"/></g></g><g><text fill="#221F1F" font-family="'HelveticaNeue-Light'" font-size="18.595" transform="matrix(1 0 0 1 431.586 406.3203)">B97</text><g><text fill="#221F1F" font-family="'ApexNew-Book'" font-size="8.706" transform="matrix(1 0 0 1 421.5674 431.9376)">script/server</text><circle cx="416.2" cy="429.1" r="2.5" fill="#73BD46" stroke="#FFF" stroke-miterlimit="10" stroke-width="2"/></g><g display="none"><text fill="#221F1F" display="inline" font-family="'ApexNew-Book'" font-size="8.706" transform="matrix(1 0 0 1 421.5674 444.838)">index.html</text><circle cx="416.2" cy="442" r="2.5" fill="#73BD46" stroke="#FFF" stroke-miterlimit="10" stroke-width="2" display="inline"/></g></g></g></g><g id="step-2"><path fill="none" stroke="#221F1F" stroke-miterlimit="10" d="M288.6,467.3"/><line x1="175.3" x2="127.1" y1="368.5" y2="368.5" fill="none" stroke="#E6E6E6" stroke-miterlimit="10" stroke-width=".6"/><path fill="#414141" d="M170.4,347.3c2.4,0,4.4,2,4.4,4.4v38.6c0,2.4-2,4.4-4.4,4.4h-38.6c-2.4,0-4.4-2-4.4-4.4v-38.6 c0-2.4,2-4.4,4.4-4.4H170.4 M170.4,346.9h-38.6c-2.7,0-4.8,2.1-4.8,4.8v38.6c0,2.7,2.1,4.8,4.8,4.8h38.6c2.7,0,4.8-2.1,4.8-4.8 v-38.6C175.2,349,173,346.9,170.4,346.9L170.4,346.9z"/><text fill="#221F1F" font-family="'HelveticaNeue-Light'" font-size="11.157" transform="matrix(1 0 0 1 141.6855 362.2705)">48E</text><text fill="#221F1F" font-family="'ApexNew-Book'" font-size="5.224" transform="matrix(1 0 0 1 135.2618 377.6407)">README.md</text><circle cx="132" cy="375.9" r="1.5" fill="#BD2C00" stroke="#FFF" stroke-miterlimit="10" stroke-width="2"/><line x1="290.2" x2="209.8" y1="416.5" y2="416.5" fill="none" stroke="#E6E6E6" stroke-miterlimit="10"/><path fill="#414141" d="M281.9,381.1c4.1,0,7.4,3.3,7.4,7.4v64.3c0,4.1-3.3,7.4-7.4,7.4h-64.3c-4.1,0-7.4-3.3-7.4-7.4v-64.3 c0-4.1,3.3-7.4,7.4-7.4L281.9,381.1 M281.9,380.5h-64.3c-4.4,0-8,3.6-8,8v64.3c0,4.4,3.6,8,8,8h64.3c4.4,0,8-3.6,8-8v-64.3 C289.9,384.1,286.3,380.5,281.9,380.5L281.9,380.5z"/><text fill="#221F1F" font-family="'HelveticaNeue-Light'" font-size="18.595" transform="matrix(1 0 0 1 233.2606 406.1143)">62D</text><text fill="#221F1F" font-family="'ApexNew-Book'" font-size="8.706" transform="matrix(1 0 0 1 223.4097 431.7314)">script/setup</text><circle cx="218" cy="428.9" r="2.5" fill="#73BD46" stroke="#FFF" stroke-miterlimit="10" stroke-width="2"/><text fill="#221F1F" font-family="'ApexNew-Book'" font-size="8.706" transform="matrix(1 0 0 1 223.4097 444.6318)">script/update</text><circle cx="218" cy="441.8" r="2.5" fill="#73BD46" stroke="#FFF" stroke-miterlimit="10" stroke-width="2"/><text id="Prime_2_" fill="#221F1F" font-family="'HelveticaNeue-Light'" font-size="18.595" transform="matrix(1 0 0 1 267.748 405.8477)">´</text><text id="Prime_1_" fill="#221F1F" font-family="'HelveticaNeue-Light'" font-size="18.595" transform="matrix(1 0 0 1 466.5605 405.8477)">´</text><path fill="none" stroke="#FFF" stroke-linecap="round" stroke-linejoin="round" stroke-miterlimit="10" stroke-width="3" d="M216.3,394.2L216.3,394.2l-0.9,1l4.1,3.8c0,0-4.4,0-9.9,0c-37.2,0-83,0-116.9,0c-4.3,0-7.3,0-7.3,0v1.3c0,0,3,0,7.3,0 c33.9,0,79.6,0,116.9,0c5.6,0,9.9,0,9.9,0l-4.1,3.8l0.9,1l5.9-5.5C222.2,399.7,216.3,394.2,216.3,394.2L216.3,394.2z"/><path fill="#221F1F" d="M216.3,394.2L216.3,394.2l-0.9,1l4.1,3.8c0,0-4.4,0-9.9,0c-37.2,0-83,0-116.9,0c-4.3,0-7.3,0-7.3,0v1.3 c0,0,3,0,7.3,0c33.9,0,79.6,0,116.9,0c5.6,0,9.9,0,9.9,0l-4.1,3.8l0.9,1l5.9-5.5C222.2,399.7,216.3,394.2,216.3,394.2L216.3,394.2z"/><path fill="none" stroke="#FFF" stroke-linecap="round" stroke-linejoin="round" stroke-miterlimit="10" stroke-width="3" d="M414,394.5L414,394.5l-0.9,1l4.1,3.8c0,0-4.4,0-9.9,0c-37.1,0-82.8,0-116.5,0c-4.3,0-7.3,0-7.3,0v1.3c0,0,3,0,7.3,0 c33.8,0,79.4,0,116.5,0c5.6,0,9.9,0,9.9,0l-4.2,3.8l0.9,1l5.9-5.5C419.9,400,414,394.5,414,394.5L414,394.5z"/><path fill="#221F1F" d="M414,394.5L414,394.5l-0.9,1l4.1,3.8c0,0-4.4,0-9.9,0c-37.1,0-82.8,0-116.5,0c-4.3,0-7.3,0-7.3,0v1.3 c0,0,3,0,7.3,0c33.8,0,79.4,0,116.5,0c5.6,0,9.9,0,9.9,0l-4.2,3.8l0.9,1l5.9-5.5C419.9,400,414,394.5,414,394.5L414,394.5z"/><circle cx="283.4" cy="400" r=".7" fill="#221F1F"/><path fill="#221F1F" d="M414,394.5L414,394.5c0.3,0.3,0.3,0.7,0,0.9c-0.3,0.3-0.7,0.3-0.9,0c-0.3-0.3-0.3-0.7,0-0.9l0,0 C413.3,394.2,413.8,394.2,414,394.5z"/><path fill="#221F1F" d="M414,404.5c0.3,0.3,0.3,0.7,0,0.9c0,0,0,0-0.1,0.1c-0.3,0.2-0.6,0.2-0.9,0c0,0,0,0-0.1-0.1 c-0.3-0.3-0.3-0.7,0-0.9C413.3,404.2,413.8,404.2,414,404.5z"/><line x1="488.3" x2="407.9" y1="416.7" y2="416.7" fill="none" stroke="#E6E6E6" stroke-miterlimit="10"/><path fill="#414141" d="M480,381.3c4.1,0,7.4,3.3,7.4,7.4V453c0,4.1-3.3,7.4-7.4,7.4h-64.3c-4.1,0-7.4-3.3-7.4-7.4v-64.3 c0-4.1,3.3-7.4,7.4-7.4H480 M480,380.7h-64.3c-4.4,0-8,3.6-8,8V453c0,4.4,3.6,8,8,8H480c4.4,0,8-3.6,8-8v-64.3 C488.1,384.3,484.5,380.7,480,380.7L480,380.7z"/><text fill="#221F1F" font-family="'HelveticaNeue-Light'" font-size="18.595" transform="matrix(1 0 0 1 431.586 406.3203)">B97</text><text fill="#221F1F" font-family="'ApexNew-Book'" font-size="8.706" transform="matrix(1 0 0 1 421.5674 431.9376)">script/server</text><circle cx="416.2" cy="429.1" r="2.5" fill="#73BD46" stroke="#FFF" stroke-miterlimit="10" stroke-width="2"/></g></svg>